<?xml version="1.0" encoding="UTF-8"?>
<!DOCTYPE svg PUBLIC "-//W3C//DTD SVG 1.1//EN" "http://www.w3.org/Graphics/SVG/1.1/DTD/svg11.dtd">
<!-- Creator: CorelDRAW X6 -->
<svg xmlns="http://www.w3.org/2000/svg" xml:space="preserve" width="38.1mm" height="38.1mm" version="1.1" style="shape-rendering:geometricPrecision; text-rendering:geometricPrecision; image-rendering:optimizeQuality; fill-rule:evenodd; clip-rule:evenodd"
viewBox="0 0 3810 3810"
 xmlns:xlink="http://www.w3.org/1999/xlink">
 <defs>
  <style type="text/css">
   <![CDATA[
    .fil8 {fill:#3D373D}
    .fil5 {fill:#575656}
    .fil2 {fill:#727271}
    .fil4 {fill:#8D8D8D}
    .fil9 {fill:#A4A4A4}
    .fil3 {fill:#B0B0B1}
    .fil10 {fill:#BCBDBD}
    .fil1 {fill:#EBECEC}
    .fil6 {fill:#FAB719}
    .fil0 {fill:#FEFEFE}
    .fil7 {fill:#FFDD09}
    .fil11 {fill:white;fill-rule:nonzero}
   ]]>
  </style>
 </defs>
 <g id="Слой_x0020_1">
  <metadata id="CorelCorpID_0Corel-Layer"/>
  <g id="_137700640">
   <polygon class="fil0" points="3429,2956 638,2956 638,165 3429,165 "/>
   <path class="fil1" d="M2016 2625c0,23 256,41 572,41 316,0 572,-19 572,-41 0,-23 -256,-41 -572,-41 -316,0 -572,19 -572,41z"/>
   <path class="fil1" d="M1178 2752c0,28 220,51 491,51 271,0 491,-23 491,-51 0,-28 -220,-51 -491,-51 -271,0 -491,23 -491,51z"/>
   <path class="fil0" d="M2636 1834c0,16 -13,29 -29,29 -16,0 -29,-13 -29,-29 0,-16 13,-29 29,-29 16,0 29,13 29,29z"/>
   <polygon class="fil2" points="2558,1413 2544,1413 2544,1072 2558,1072 "/>
   <polygon class="fil2" points="2679,1413 2665,1413 2665,1072 2679,1072 "/>
   <path class="fil3" d="M2613 1729l0 -37 -22 0 0 63c0,0 53,-9 53,32 0,18 -15,33 -33,33 -5,0 -9,-1 -13,-3 -11,3 -13,19 -11,24 7,3 15,5 24,5 32,0 58,-26 58,-58 0,-32 -25,-57 -57,-58z"/>
   <polygon class="fil4" points="2578,1706 2623,1706 2623,1623 2578,1623 "/>
   <polygon class="fil5" points="2578,1643 2601,1643 2601,1706 2578,1706 "/>
   <polygon class="fil6" points="2706,1443 2511,1443 2511,1538 2556,1643 2659,1643 2706,1538 "/>
   <polygon class="fil7" points="2692,1443 2524,1443 2524,1533 2563,1632 2652,1632 2692,1533 "/>
   <polygon class="fil8" points="2689,1541 2570,1632 2632,1632 2661,1610 "/>
   <polygon class="fil8" points="2692,1450 2538,1568 2552,1605 2692,1497 "/>
   <polygon class="fil8" points="2570,1443 2524,1478 2524,1525 2631,1443 "/>
   <path class="fil9" d="M2634 1493c0,14 -12,26 -26,26 -14,0 -26,-12 -26,-26 0,-14 12,-26 26,-26 14,0 26,12 26,26z"/>
   <path class="fil4" d="M2616 1503c-6,4 -13,3 -17,-3 -4,-6 -3,-13 3,-17 6,-4 13,-3 17,3 4,6 3,13 -3,17z"/>
   <path class="fil5" d="M2598 1500l0 0c-2,-2 -2,-5 -2,-7 0,-4 2,-8 5,-10 2,-2 5,-2 7,-2 4,0 8,2 10,5l-20 14z"/>
   <polygon class="fil4" points="2706,1447 2706,1402 2511,1402 2511,1447 "/>
   <polygon class="fil4" points="2706,1447 2706,1447 2706,1436 2706,1436 "/>
   <polygon class="fil5" points="2706,1447 2706,1447 2626,1447 2564,1447 2511,1447 2511,1436 2706,1436 "/>
   <path class="fil10" d="M2697 1413l-179 0c-2,0 -4,-2 -4,-4 0,-2 2,-4 4,-4l179 0c2,0 4,2 4,4 0,2 -2,4 -4,4z"/>
   <polygon class="fil8" points="2511,1108 2694,1108 2694,1066 2511,1066 "/>
   <polygon class="fil8" points="1763,1172 1763,1162 1565,1162 1565,2737 1773,2737 1773,1162 1763,1162 1763,1172 1753,1172 1753,2717 1585,2717 1585,1182 1763,1182 1763,1172 1753,1172 "/>
   <polygon class="fil8" points="1575,2526 1763,2526 1763,2506 1575,2506 "/>
   <polygon class="fil8" points="1575,2148 1763,2148 1763,2128 1575,2128 "/>
   <polygon class="fil8" points="1575,1946 1763,1946 1763,1926 1575,1926 "/>
   <polygon class="fil8" points="1575,1753 1763,1753 1763,1733 1575,1733 "/>
   <polygon class="fil8" points="1575,1560 1763,1560 1763,1539 1575,1539 "/>
   <polygon class="fil8" points="1575,1366 1763,1366 1763,1346 1575,1346 "/>
   <polygon class="fil8" points="1568,1179 1756,1363 1770,1349 1582,1165 "/>
   <polygon class="fil8" points="1582,1363 1770,1179 1756,1165 1568,1349 "/>
   <polygon class="fil8" points="1568,1372 1756,1557 1770,1542 1582,1358 "/>
   <polygon class="fil8" points="1582,1557 1770,1372 1756,1358 1568,1542 "/>
   <polygon class="fil8" points="1568,1566 1756,1750 1770,1736 1582,1551 "/>
   <polygon class="fil8" points="1582,1750 1770,1566 1756,1551 1568,1736 "/>
   <polygon class="fil8" points="1568,1759 1756,1943 1770,1929 1582,1745 "/>
   <polygon class="fil8" points="1582,1943 1770,1759 1756,1745 1568,1929 "/>
   <polygon class="fil8" points="1568,1952 1756,2136 1770,2122 1582,1938 "/>
   <polygon class="fil8" points="1582,2136 1770,1952 1756,1938 1568,2122 "/>
   <polygon class="fil8" points="1568,2145 1756,2330 1770,2315 1582,2131 "/>
   <polygon class="fil8" points="1582,2330 1770,2145 1756,2131 1568,2315 "/>
   <polygon class="fil8" points="1568,2339 1756,2523 1770,2509 1582,2324 "/>
   <polygon class="fil8" points="1582,2523 1770,2339 1756,2324 1568,2509 "/>
   <polygon class="fil8" points="1898,2765 1440,2765 1440,2687 1898,2687 "/>
   <polygon class="fil8" points="1835,2687 1503,2687 1503,2608 1835,2608 "/>
   <polygon class="fil8" points="1763,342 1763,332 1565,332 1565,786 1773,786 1773,332 1763,332 1763,342 1753,342 1753,766 1585,766 1585,352 1763,352 1763,342 1753,342 "/>
   <polygon class="fil8" points="1575,537 1763,537 1763,517 1575,517 "/>
   <polygon class="fil8" points="1568,350 1756,534 1770,520 1582,335 "/>
   <polygon class="fil8" points="1582,534 1770,350 1756,335 1568,520 "/>
   <polygon class="fil8" points="1568,543 1756,727 1770,713 1582,528 "/>
   <polygon class="fil8" points="1582,727 1770,543 1756,528 1568,713 "/>
   <polygon class="fil8" points="3018,1059 3028,1059 3028,861 1898,861 1743,1069 3028,1069 3028,1059 3018,1059 3018,1049 1783,1049 1908,881 3008,881 3008,1059 3018,1059 3018,1049 "/>
   <polygon class="fil8" points="2086,871 2086,1059 2106,1059 2106,871 "/>
   <polygon class="fil8" points="2273,864 2089,1052 2103,1066 2288,878 "/>
   <polygon class="fil8" points="2089,878 2273,1066 2288,1052 2103,864 "/>
   <polygon class="fil8" points="2271,871 2271,1059 2291,1059 2291,871 "/>
   <polygon class="fil8" points="2458,864 2273,1052 2288,1066 2472,878 "/>
   <polygon class="fil8" points="2273,878 2458,1066 2472,1052 2288,864 "/>
   <polygon class="fil8" points="2455,871 2455,1059 2475,1059 2475,871 "/>
   <polygon class="fil8" points="2642,864 2458,1052 2472,1066 2656,878 "/>
   <polygon class="fil8" points="2458,878 2642,1066 2656,1052 2472,864 "/>
   <polygon class="fil8" points="2639,871 2639,1059 2659,1059 2659,871 "/>
   <polygon class="fil8" points="2826,864 2642,1052 2656,1066 2841,878 "/>
   <polygon class="fil8" points="2642,878 2826,1066 2841,1052 2656,864 "/>
   <polygon class="fil8" points="2823,871 2823,1059 2844,1059 2844,871 "/>
   <polygon class="fil8" points="3011,864 2826,1052 2841,1066 3025,878 "/>
   <polygon class="fil8" points="2826,878 3011,1066 3025,1052 2841,864 "/>
   <polygon class="fil8" points="2080,864 1896,1052 1910,1066 2095,878 "/>
   <polygon class="fil8" points="1893,871 1893,1059 1913,1059 1913,871 "/>
   <polygon class="fil8" points="1896,878 2080,1066 2095,1052 1910,864 "/>
   <polygon class="fil8" points="944,1059 955,1059 955,881 1501,881 1626,1049 944,1049 944,1059 955,1059 944,1059 944,1069 1667,1069 1511,861 934,861 934,1069 944,1069 "/>
   <polygon class="fil8" points="1303,871 1303,1059 1323,1059 1323,871 "/>
   <polygon class="fil8" points="1122,878 1306,1066 1320,1052 1136,864 "/>
   <polygon class="fil8" points="1306,864 1122,1052 1136,1066 1320,878 "/>
   <polygon class="fil8" points="1119,871 1119,1059 1139,1059 1139,871 "/>
   <polygon class="fil8" points="937,878 1122,1066 1136,1052 952,864 "/>
   <polygon class="fil8" points="1315,878 1499,1066 1513,1052 1329,864 "/>
   <polygon class="fil8" points="1496,871 1496,1059 1516,1059 1516,871 "/>
   <polygon class="fil8" points="1499,864 1315,1052 1329,1066 1513,878 "/>
   <polygon class="fil8" points="1815,1172 1549,1172 1549,1075 1815,1075 "/>
   <polygon class="fil8" points="1815,1023 1549,1023 1549,720 1815,720 "/>
   <polygon class="fil8" points="1860,1102 1530,1102 1530,1013 1860,1013 "/>
   <polygon class="fil8" points="979,1324 1255,1324 1255,1059 979,1059 "/>
   <polygon class="fil8" points="952,1066 1582,349 1567,336 937,1052 "/>
   <polygon class="fil8" points="1759,352 3014,880 3022,862 1767,333 "/>
   <path class="fil11" d="M834 3561l-82 0 0 -118 -30 0 0 118 -82 0 0 -320 82 0 0 115 30 0 0 -115 82 0 0 320zm218 -155l-108 0 0 69c0,14 1,24 3,28 2,4 5,6 10,6 6,0 11,-3 13,-8 2,-6 3,-16 3,-32l0 -42 79 0 0 24c0,20 -1,35 -3,46 -2,11 -7,22 -15,34 -8,12 -18,21 -30,27 -12,6 -27,9 -45,9 -18,0 -33,-3 -46,-9 -13,-6 -24,-14 -31,-24 -8,-10 -13,-22 -15,-34 -3,-12 -4,-31 -4,-54l0 -93c0,-28 3,-50 10,-66 6,-16 17,-29 32,-37 15,-9 32,-13 51,-13 23,0 42,5 58,16 15,10 26,24 32,41 6,17 9,41 9,72l0 42zm-83 -52l0 -23c0,-17 -1,-27 -2,-32 -2,-5 -5,-7 -9,-7 -6,0 -10,2 -11,6 -1,4 -2,15 -2,33l0 23 25 0zm351 268l-56 0 0 -62 -140 0 0 62 -56 0 0 -138 18 0c11,-19 19,-49 26,-89 7,-40 10,-88 10,-143l0 -12 179 0 0 243 18 0 0 139zm-100 -139l0 -171 -21 0 0 3c0,59 -8,115 -25,168l46 0zm313 -7c0,33 -6,55 -18,67 -12,12 -38,18 -79,18l-95 0 0 -320 98 0c34,0 57,7 69,20 13,13 19,35 19,67 0,36 -16,57 -48,62 17,3 30,11 40,23 10,12 14,27 14,46l0 19zm-110 -117c13,0 20,-2 23,-6 3,-4 4,-11 4,-22 0,-9 -2,-16 -5,-19 -3,-4 -11,-5 -23,-5l0 52zm27 102l0 -11c0,-14 -2,-22 -5,-26 -3,-3 -11,-5 -23,-5l0 74c11,0 18,-2 22,-6 4,-4 5,-13 5,-26zm312 99l-72 0 0 -173 -58 173 -76 0 0 -320 72 0 0 171 57 -171 77 0 0 320zm326 0l-80 0c-6,-10 -9,-22 -9,-38l0 -68c0,-22 -9,-33 -27,-33l0 138 -82 0 0 -138c-15,0 -22,11 -22,33l0 68c0,22 -3,34 -9,38l-80 0c6,-10 9,-26 9,-47l0 -56c0,-27 14,-45 43,-56 8,-3 17,-6 27,-8 -5,0 -14,-3 -28,-8 -14,-7 -23,-13 -27,-18 -9,-9 -14,-22 -14,-38l0 -43c0,-20 -3,-36 -9,-46l80 0c6,10 9,22 9,38l0 54c0,22 7,33 22,33l0 -124 82 0 0 124c17,0 26,-11 26,-33l0 -54c0,-22 3,-34 9,-38l80 0c-6,10 -9,26 -9,46l0 43c0,16 -5,28 -14,38 -4,4 -13,10 -27,18 -8,5 -18,7 -28,8 5,1 14,4 27,8 28,11 42,29 42,56l0 56c0,21 3,36 9,47zm223 0l-72 0 0 -173 -58 173 -76 0 0 -320 72 0 0 171 57 -171 77 0 0 320zm287 0l-71 0 0 -221 -35 221 -45 0 -36 -221 0 221 -71 0 0 -320 103 0 27 177 24 -177 104 0 0 320zm217 -208l0 78c0,29 -1,50 -4,63 -2,13 -8,26 -16,38 -8,12 -18,20 -31,26 -13,6 -27,8 -44,8 -18,0 -34,-2 -47,-7 -13,-5 -23,-12 -30,-21 -7,-10 -12,-21 -15,-35 -3,-14 -4,-34 -4,-61l0 -82c0,-30 3,-53 8,-70 5,-17 15,-30 30,-40 14,-10 32,-15 55,-15 19,0 35,3 48,10 13,7 24,15 31,25 7,10 12,21 15,32 3,11 4,28 4,51zm-83 -24c0,-16 -1,-27 -2,-31 -2,-4 -5,-6 -10,-6 -5,0 -8,2 -10,6 -2,4 -2,15 -2,31l0 144c0,15 1,25 2,30 2,5 5,7 10,7 5,0 8,-2 10,-6 2,-4 2,-13 2,-27l0 -148zm294 33l-78 0 0 -37c0,-13 -1,-22 -3,-26 -2,-5 -5,-7 -10,-7 -5,0 -8,2 -10,6 -2,4 -3,13 -3,27l0 151c0,11 1,20 4,26 2,6 6,9 11,9 6,0 10,-3 12,-9 2,-6 3,-17 3,-34l0 -38 74 0c0,26 -1,45 -2,57 -1,13 -6,26 -14,39 -8,13 -18,24 -30,30 -12,7 -28,10 -46,10 -23,0 -42,-5 -56,-14 -14,-9 -23,-23 -29,-40 -6,-17 -9,-41 -9,-72l0 -91c0,-27 2,-48 7,-62 5,-14 15,-26 30,-37 15,-11 34,-16 56,-16 22,0 40,5 56,16 15,11 26,24 31,41 5,16 8,40 8,70zm189 -121l0 67 -48 0 0 253 -83 0 0 -253 -48 0 0 -67 178 0zm210 229c0,29 -3,50 -9,63 -6,13 -15,21 -27,24 -12,3 -33,5 -61,5l-96 0 0 -320 82 0 0 107 14 0c26,0 46,2 59,6 13,4 23,12 29,24 6,13 9,32 9,60l0 33zm-82 -12l0 -13c0,-17 -1,-27 -4,-30 -3,-4 -11,-6 -24,-6l0 85c11,0 18,-2 22,-5 4,-3 6,-14 6,-31z"/>
  </g>
 </g>
</svg>
