<svg xmlns="http://www.w3.org/2000/svg" viewBox="0 0 1170 200"><defs><style>.cls-1{fill:#173a48;}.cls-2{fill:#fff;}</style></defs><title>birka</title><g id="Слой_2" data-name="Слой 2"><g id="Слой_2-2" data-name="Слой 2"><rect class="cls-1" width="1170" height="200"/><path class="cls-2" d="M1134,12h-14.17a2.83,2.83,0,1,0,0,5.67H1134a2.83,2.83,0,0,0,0-5.67Zm-28.35,0h-14.17a2.83,2.83,0,0,0,0,5.67h14.17a2.83,2.83,0,0,0,0-5.67Zm-28.35,0h-14.17a2.83,2.83,0,0,0,0,5.67h14.17a2.83,2.83,0,0,0,0-5.67ZM1049,12h-14.17a2.83,2.83,0,1,0,0,5.67H1049a2.83,2.83,0,0,0,0-5.67Zm-28.35,0h-14.17a2.83,2.83,0,0,0,0,5.67h14.17a2.83,2.83,0,1,0,0-5.67Zm-28.35,0H978.09a2.83,2.83,0,1,0,0,5.67h14.17a2.83,2.83,0,0,0,0-5.67Zm-28.35,0H949.75a2.83,2.83,0,0,0,0,5.67h14.17a2.83,2.83,0,1,0,0-5.67Zm-28.35,0H921.4a2.83,2.83,0,1,0,0,5.67h14.17a2.83,2.83,0,0,0,0-5.67Zm-28.35,0H893.06a2.83,2.83,0,0,0,0,5.67h14.17a2.83,2.83,0,0,0,0-5.67Zm-28.35,0H864.71a2.83,2.83,0,0,0,0,5.67h14.17a2.83,2.83,0,1,0,0-5.67Zm-28.35,0H836.36a2.83,2.83,0,1,0,0,5.67h14.17a2.83,2.83,0,1,0,0-5.67Zm-28.35,0H808a2.83,2.83,0,0,0,0,5.67h14.17a2.83,2.83,0,1,0,0-5.67Zm-28.35,0H779.67a2.83,2.83,0,0,0,0,5.67h14.17a2.83,2.83,0,1,0,0-5.67ZM765.5,12H751.32a2.83,2.83,0,1,0,0,5.67H765.5a2.83,2.83,0,1,0,0-5.67Zm-28.35,0H723a2.83,2.83,0,1,0,0,5.67h14.17a2.83,2.83,0,1,0,0-5.67ZM708.8,12H694.63a2.83,2.83,0,1,0,0,5.67H708.8a2.83,2.83,0,1,0,0-5.67Zm-28.35,0H666.28a2.83,2.83,0,1,0,0,5.67h14.17a2.83,2.83,0,1,0,0-5.67Zm-28.35,0H637.94a2.83,2.83,0,1,0,0,5.67h14.17a2.83,2.83,0,0,0,0-5.67Zm-28.35,0H609.59a2.83,2.83,0,1,0,0,5.67h14.17a2.83,2.83,0,0,0,0-5.67Zm-28.35,0H581.24a2.83,2.83,0,1,0,0,5.67h14.17a2.83,2.83,0,1,0,0-5.67Zm-28.35,0H552.9a2.83,2.83,0,1,0,0,5.67h14.17a2.83,2.83,0,1,0,0-5.67Zm-28.35,0H524.55a2.83,2.83,0,1,0,0,5.67h14.17a2.83,2.83,0,1,0,0-5.67Zm-28.35,0H496.2a2.83,2.83,0,1,0,0,5.67h14.17a2.83,2.83,0,1,0,0-5.67ZM482,12H467.86a2.83,2.83,0,0,0,0,5.67H482A2.83,2.83,0,1,0,482,12Zm-28.35,0H439.51a2.83,2.83,0,1,0,0,5.67h14.17a2.83,2.83,0,1,0,0-5.67Zm-28.35,0H411.17a2.83,2.83,0,0,0,0,5.67h14.17a2.83,2.83,0,1,0,0-5.67ZM397,12H382.82a2.83,2.83,0,1,0,0,5.67H397A2.83,2.83,0,1,0,397,12Zm-28.35,0H354.47a2.83,2.83,0,1,0,0,5.67h14.17a2.83,2.83,0,1,0,0-5.67ZM340.3,12H326.13a2.83,2.83,0,1,0,0,5.67H340.3a2.83,2.83,0,1,0,0-5.67ZM312,12H297.78a2.83,2.83,0,1,0,0,5.67H312A2.83,2.83,0,1,0,312,12Zm-28.35,0H269.43a2.83,2.83,0,1,0,0,5.67h14.17a2.83,2.83,0,1,0,0-5.67Zm-28.35,0H241.09a2.83,2.83,0,1,0,0,5.67h14.17a2.83,2.83,0,1,0,0-5.67Zm-28.35,0H212.74a2.83,2.83,0,1,0,0,5.67h14.17a2.83,2.83,0,1,0,0-5.67Zm-28.35,0H184.39a2.83,2.83,0,1,0,0,5.67h14.17a2.83,2.83,0,1,0,0-5.67Zm-28.35,0H156a2.83,2.83,0,1,0,0,5.67h14.17a2.83,2.83,0,1,0,0-5.67Zm-28.35,0H127.7a2.83,2.83,0,1,0,0,5.67h14.17a2.83,2.83,0,1,0,0-5.67Zm-28.35,0H99.35a2.83,2.83,0,1,0,0,5.67h14.17a2.83,2.83,0,1,0,0-5.67ZM85.18,12H71a2.83,2.83,0,1,0,0,5.67H85.18a2.83,2.83,0,1,0,0-5.67ZM56.83,12H42.66a2.83,2.83,0,0,0,0,5.67H56.83a2.83,2.83,0,0,0,0-5.67ZM29.4,13a2.84,2.84,0,0,0-.81.12,26,26,0,0,0-11.85,7.46,2.83,2.83,0,0,0,4.2,3.81,20.33,20.33,0,0,1,9.26-5.83A2.84,2.84,0,0,0,29.4,13ZM13.25,30.74A2.84,2.84,0,0,0,10.47,33,26.05,26.05,0,0,0,10,36.85h0v0h0v0h0v0h0v0h0v0h0v0h0v0h0v0h0v0h0v.15h0v0h0v.54h0v9.23a2.83,2.83,0,1,0,5.67,0V38A20.53,20.53,0,0,1,16,34.12a2.84,2.84,0,0,0-2.79-3.37Zm-.42,27.78A2.83,2.83,0,0,0,10,61.36V75.53a2.83,2.83,0,0,0,5.67,0V61.36a2.83,2.83,0,0,0-2.83-2.83Zm0,28.35A2.83,2.83,0,0,0,10,89.71v14.17a2.83,2.83,0,1,0,5.67,0V89.71a2.83,2.83,0,0,0-2.83-2.83Zm0,28.35A2.83,2.83,0,0,0,10,118.05v14.17a2.83,2.83,0,0,0,5.67,0V118.05a2.83,2.83,0,0,0-2.83-2.83Zm0,28.35A2.83,2.83,0,0,0,10,146.4v14.17a2.83,2.83,0,0,0,5.67,0V146.4a2.83,2.83,0,0,0-2.83-2.83Zm2.72,26.51A2.84,2.84,0,0,0,13,174.23a26.12,26.12,0,0,0,9.69,10.14,2.83,2.83,0,0,0,2.89-4.88,20.42,20.42,0,0,1-7.57-7.92,2.83,2.83,0,0,0-2.5-1.5Zm34.87,12.26H36.25a2.83,2.83,0,1,0,0,5.67H50.42a2.83,2.83,0,1,0,0-5.67Zm28.35,0H64.59a2.83,2.83,0,1,0,0,5.67H78.77a2.83,2.83,0,1,0,0-5.67Zm28.35,0H92.94a2.83,2.83,0,1,0,0,5.67h14.17a2.83,2.83,0,1,0,0-5.67Zm28.35,0H121.29a2.83,2.83,0,0,0,0,5.67h14.17a2.83,2.83,0,1,0,0-5.67Zm28.35,0H149.63a2.83,2.83,0,1,0,0,5.67h14.17a2.83,2.83,0,1,0,0-5.67Zm28.35,0H178a2.83,2.83,0,0,0,0,5.67h14.17a2.83,2.83,0,1,0,0-5.67Zm28.35,0H206.32a2.83,2.83,0,0,0,0,5.67H220.5a2.83,2.83,0,1,0,0-5.67Zm28.35,0H234.67a2.83,2.83,0,0,0,0,5.67h14.17a2.83,2.83,0,1,0,0-5.67Zm28.35,0H263a2.83,2.83,0,0,0,0,5.67h14.17a2.83,2.83,0,1,0,0-5.67Zm28.35,0H291.36a2.83,2.83,0,0,0,0,5.67h14.17a2.83,2.83,0,0,0,0-5.67Zm28.35,0H319.71a2.83,2.83,0,0,0,0,5.67h14.17a2.83,2.83,0,0,0,0-5.67Zm28.35,0H348.06a2.83,2.83,0,0,0,0,5.67h14.17a2.83,2.83,0,0,0,0-5.67Zm28.35,0H376.4a2.83,2.83,0,0,0,0,5.67h14.17a2.83,2.83,0,0,0,0-5.67Zm28.35,0H404.75a2.83,2.83,0,0,0,0,5.67h14.17a2.83,2.83,0,0,0,0-5.67Zm28.35,0H433.1a2.83,2.83,0,0,0,0,5.67h14.17a2.83,2.83,0,0,0,0-5.67Zm28.35,0H461.44a2.83,2.83,0,0,0,0,5.67h14.17a2.83,2.83,0,1,0,0-5.67Zm28.35,0H489.79a2.83,2.83,0,0,0,0,5.67H504a2.83,2.83,0,0,0,0-5.67Zm28.35,0H518.14a2.83,2.83,0,1,0,0,5.67h14.17a2.83,2.83,0,0,0,0-5.67Zm28.35,0H546.48a2.83,2.83,0,1,0,0,5.67h14.17a2.83,2.83,0,1,0,0-5.67Zm28.35,0H574.83a2.83,2.83,0,0,0,0,5.67H589a2.83,2.83,0,0,0,0-5.67Zm28.35,0H603.18a2.83,2.83,0,1,0,0,5.67h14.17a2.83,2.83,0,1,0,0-5.67Zm28.35,0H631.52a2.83,2.83,0,1,0,0,5.67h14.17a2.83,2.83,0,1,0,0-5.67Zm28.35,0H659.87a2.83,2.83,0,1,0,0,5.67H674a2.83,2.83,0,1,0,0-5.67Zm28.35,0H688.21a2.83,2.83,0,1,0,0,5.67h14.17a2.83,2.83,0,1,0,0-5.67Zm28.35,0H716.56a2.83,2.83,0,0,0,0,5.67h14.17a2.83,2.83,0,0,0,0-5.67Zm28.35,0H744.91a2.83,2.83,0,0,0,0,5.67h14.17a2.83,2.83,0,0,0,0-5.67Zm28.35,0H773.25a2.83,2.83,0,1,0,0,5.67h14.17a2.83,2.83,0,1,0,0-5.67Zm28.35,0H801.6a2.83,2.83,0,1,0,0,5.67h14.17a2.83,2.83,0,1,0,0-5.67Zm28.35,0H829.95a2.83,2.83,0,1,0,0,5.67h14.17a2.83,2.83,0,1,0,0-5.67Zm28.35,0H858.29a2.83,2.83,0,1,0,0,5.67h14.17a2.83,2.83,0,0,0,0-5.67Zm28.35,0H886.64a2.83,2.83,0,1,0,0,5.67h14.17a2.83,2.83,0,1,0,0-5.67Zm28.35,0H915a2.83,2.83,0,1,0,0,5.67h14.17a2.83,2.83,0,0,0,0-5.67Zm28.35,0H943.33a2.83,2.83,0,1,0,0,5.67h14.17a2.83,2.83,0,1,0,0-5.67Zm28.35,0H971.68a2.83,2.83,0,1,0,0,5.67h14.17a2.83,2.83,0,0,0,0-5.67Zm28.35,0H1000a2.83,2.83,0,1,0,0,5.67h14.17a2.83,2.83,0,1,0,0-5.67Zm28.35,0h-14.17a2.83,2.83,0,0,0,0,5.67h14.17a2.83,2.83,0,1,0,0-5.67Zm28.35,0h-14.17a2.83,2.83,0,0,0,0,5.67h14.17a2.83,2.83,0,1,0,0-5.67Zm28.35,0h-14.17a2.83,2.83,0,1,0,0,5.67h14.17a2.83,2.83,0,1,0,0-5.67Zm28.35,0h-14.17a2.83,2.83,0,0,0,0,5.67h14.17a2.83,2.83,0,1,0,0-5.67Zm23.72-7.76a2.83,2.83,0,0,0-2.12.95,20.33,20.33,0,0,1-9.21,5.92,2.83,2.83,0,0,0,1.65,5.42l.63-.2h0l.11,0h0l.1,0h0l.06,0h.46l0,0h.06l0,0h0l0,0h.06l0,0h0l0,0h0l.1,0h0l.1,0h0l0,0h0l.1,0h0a26.06,26.06,0,0,0,9.61-6.8,2.83,2.83,0,0,0-2.12-4.72Zm5.86-24.83a2.83,2.83,0,0,0-2.83,2.83V162a20.55,20.55,0,0,1-.33,3.69,2.83,2.83,0,1,0,5.58,1A26.09,26.09,0,0,0,1160,163h0v0h0v0h0v0h0v0h0v0h0v-.11h0v0h0v-.25h0v0h0v0h0v-.23h0v0h0v-9.43a2.83,2.83,0,0,0-2.83-2.83Zm0-28.35a2.83,2.83,0,0,0-2.83,2.83v14.17a2.83,2.83,0,1,0,5.67,0V124.22a2.83,2.83,0,0,0-2.83-2.83Zm0-28.35a2.83,2.83,0,0,0-2.83,2.83V110a2.83,2.83,0,0,0,5.67,0V95.87a2.83,2.83,0,0,0-2.83-2.83Zm0-28.35a2.83,2.83,0,0,0-2.83,2.83V81.7a2.83,2.83,0,0,0,5.67,0V67.53a2.83,2.83,0,0,0-2.83-2.83Zm0-28.35a2.83,2.83,0,0,0-2.83,2.83V53.36a2.83,2.83,0,0,0,5.67,0V39.18a2.83,2.83,0,0,0-2.83-2.83Zm-11.53-21.22a2.83,2.83,0,0,0-1.43,5.29,20.42,20.42,0,0,1,7.65,7.85,2.83,2.83,0,0,0,5-2.71,26.08,26.08,0,0,0-3.69-5.15h0l-.08-.09h0l-.19-.2h0l-.08-.08h0l-.11-.11h0l-.08-.08h0l-.08-.08h0l0,0h0l-.07-.07h0l0,0h0l0,0h0l0,0h0l0,0h0l0,0h0l-.07-.07h0l0,0h0l0,0h0l0,0h0l0,0h0l0,0h0l0,0h0l0,0h0l0,0h0l0,0h0l0,0h0l0,0,0,0,0,0h0l0,0,0,0,0,0,0,0,0,0,0,0,0,0,0,0h0l0,0,0,0,0,0h0l0,0,0,0,0,0,0,0,0,0h0l0,0h0l0,0h0l0,0h0l0,0h0l0,0h0l0,0h0l0,0h0l0,0h0l0,0h0l0,0h0l0,0h0l0,0h0l0,0h0l0,0h0l0,0h0l-.08-.06h0l0,0h0l0,0h0l0,0h0l0,0h0l0,0h0l-.08-.06h0l0,0h0l0,0h0l0,0h0l-.08-.06h0l0,0h0l0,0h0l0,0h0l-.08-.06h0l-.08-.06h0l-.44-.33h0a26,26,0,0,0-2.23-1.45,2.82,2.82,0,0,0-1.42-.39Z"/></g></g></svg>