<svg xmlns="http://www.w3.org/2000/svg" viewBox="0 0 302.38 253.71"><defs><style>.cls-1,.cls-4{fill:#fff;}.cls-2,.cls-3{fill:none;}.cls-2,.cls-3,.cls-4{stroke:#fff;stroke-miterlimit:10;}.cls-2{stroke-width:5.54px;}.cls-3{stroke-width:5.13px;}.cls-4{stroke-width:2.61px;}</style></defs><title>f1</title><g id="Слой_2" data-name="Слой 2"><g id="Слой_1-2" data-name="Слой 1"><path class="cls-1" d="M276.31,21.29a20.43,20.43,0,0,1,20.4,20.4v186a20.43,20.43,0,0,1-20.4,20.4H26.07a20.43,20.43,0,0,1-20.4-20.4v-186a20.43,20.43,0,0,1,20.4-20.4H276.31m0-5.67H26.07A26.07,26.07,0,0,0,0,41.69v186a26.07,26.07,0,0,0,26.07,26.07H276.31a26.07,26.07,0,0,0,26.07-26.07v-186a26.07,26.07,0,0,0-26.07-26.07Z"/><rect class="cls-1" x="240.89" y="2.2" width="22.06" height="13.23"/><path class="cls-1" d="M260.75,4.39v8.83H243.08V4.39h17.67M264.37,0h-24.9a.77.77,0,0,0-.77.77V16.84a.77.77,0,0,0,.77.77h24.9a.77.77,0,0,0,.77-.77V.77a.77.77,0,0,0-.77-.77Z"/><circle class="cls-2" cx="151.19" cy="134.67" r="107"/><circle class="cls-3" cx="151.19" cy="134.67" r="99.1"/><rect class="cls-4" x="265.14" y="41.86" width="25.21" height="5.24"/><rect class="cls-4" x="265.14" y="55.19" width="25.21" height="5.24"/><rect class="cls-4" x="265.14" y="68.52" width="25.21" height="5.24"/><rect class="cls-4" x="265.14" y="81.86" width="25.21" height="5.24"/><rect class="cls-4" x="265.14" y="95.19" width="25.21" height="5.24"/><rect class="cls-4" x="265.14" y="108.52" width="25.21" height="5.24"/><rect class="cls-4" x="265.14" y="121.86" width="25.21" height="5.24"/><rect class="cls-4" x="265.14" y="135.19" width="25.21" height="5.24"/><rect class="cls-4" x="265.14" y="148.52" width="25.21" height="5.24"/><rect class="cls-4" x="265.14" y="161.86" width="25.21" height="5.24"/><rect class="cls-4" x="265.14" y="175.19" width="25.21" height="5.24"/><rect class="cls-4" x="265.14" y="188.52" width="25.21" height="5.24"/><rect class="cls-4" x="265.14" y="201.86" width="25.21" height="5.24"/><rect class="cls-4" x="265.14" y="215.19" width="25.21" height="5.24"/><rect class="cls-4" x="265.14" y="228.52" width="25.21" height="5.24"/><rect class="cls-4" x="12.03" y="41.86" width="25.21" height="5.24"/><rect class="cls-4" x="12.03" y="55.19" width="25.21" height="5.24"/><rect class="cls-4" x="12.03" y="68.52" width="25.21" height="5.24"/><rect class="cls-4" x="12.03" y="81.86" width="25.21" height="5.24"/><rect class="cls-4" x="12.03" y="95.19" width="25.21" height="5.24"/><rect class="cls-4" x="12.03" y="108.52" width="25.21" height="5.24"/><rect class="cls-4" x="12.03" y="121.86" width="25.21" height="5.24"/><rect class="cls-4" x="12.03" y="135.19" width="25.21" height="5.24"/><rect class="cls-4" x="12.03" y="148.52" width="25.21" height="5.24"/><rect class="cls-4" x="12.03" y="161.86" width="25.21" height="5.24"/><rect class="cls-4" x="12.03" y="175.19" width="25.21" height="5.24"/><rect class="cls-4" x="12.03" y="188.52" width="25.21" height="5.24"/><rect class="cls-4" x="12.03" y="201.86" width="25.21" height="5.24"/><rect class="cls-4" x="12.03" y="215.19" width="25.21" height="5.24"/><rect class="cls-4" x="12.03" y="228.52" width="25.21" height="5.24"/></g></g></svg>