<svg xmlns="http://www.w3.org/2000/svg" viewBox="0 0 168.6 155.45"><defs><style>.cls-1{fill:#3b4048;}.cls-2{fill:#fff;}</style></defs><title>fix4</title><g id="Слой_2" data-name="Слой 2"><g id="Слой_1-2" data-name="Слой 1"><polygon class="cls-1" points="113.9 119.75 158.6 119.75 158.6 114.75 103.06 114.75 113.9 119.75"/><polygon class="cls-1" points="79.2 103.75 158.6 103.75 158.6 98.75 68.35 98.75 79.2 103.75"/><polygon class="cls-1" points="96.55 111.75 158.6 111.75 158.6 106.75 85.71 106.75 96.55 111.75"/><polygon class="cls-1" points="51 90.75 61.84 95.75 158.6 95.75 158.6 90.75 51 90.75"/><polygon class="cls-1" points="158.6 15.65 23.89 78 44.49 87.75 158.6 87.75 158.6 15.65"/><polygon class="cls-1" points="158.6 139.85 158.6 122.75 120.41 122.75 158.6 139.85"/><polygon class="cls-2" points="158.6 87.75 44.49 87.75 51 90.75 158.6 90.75 158.6 87.75"/><polygon class="cls-2" points="68.35 98.75 158.6 98.75 158.6 95.75 61.84 95.75 68.35 98.75"/><polygon class="cls-2" points="85.71 106.75 158.6 106.75 158.6 103.75 79.2 103.75 85.71 106.75"/><polygon class="cls-2" points="103.06 114.75 158.6 114.75 158.6 111.75 96.55 111.75 103.06 114.75"/><polygon class="cls-2" points="120.41 122.75 158.6 122.75 158.6 119.75 113.9 119.75 120.41 122.75"/><polygon class="cls-1" points="138.27 130.75 158.6 130.75 158.6 127.75 131.57 127.75 138.27 130.75"/><path class="cls-2" d="M49.33,84.75H47.8v-3.2h-3v3.2H43.26V77.28H44.8v3h3v-3h1.54Z"/><path class="cls-2" d="M55,83.21h-2.7l-.51,1.54H50.14l2.78-7.46h1.42l2.79,7.46H55.5ZM52.7,82h1.87l-.94-2.79Z"/><path class="cls-2" d="M61.51,79.34a.78.78,0,0,0-.33-.67,1.46,1.46,0,0,0-.88-.24,1.33,1.33,0,0,0-.82.24.75.75,0,0,0-.33.63H57.61A1.85,1.85,0,0,1,58,78.22a2.23,2.23,0,0,1,1-.76,3.4,3.4,0,0,1,1.37-.27,3.3,3.3,0,0,1,2,.55,1.85,1.85,0,0,1,.73,1.57,1.57,1.57,0,0,1-.3.92,2.08,2.08,0,0,1-.85.68,1.94,1.94,0,0,1,.94.65,1.77,1.77,0,0,1,.33,1.09,1.89,1.89,0,0,1-.79,1.6,3.39,3.39,0,0,1-2.09.59,3.69,3.69,0,0,1-1.47-.28,2.24,2.24,0,0,1-1-.76,1.93,1.93,0,0,1-.34-1.12h1.55a.82.82,0,0,0,.35.67,1.41,1.41,0,0,0,.89.27,1.54,1.54,0,0,0,1-.28.85.85,0,0,0,.36-.7,1,1,0,0,0-.32-.84,1.46,1.46,0,0,0-.93-.25h-.92v-1.2h.95Q61.51,80.32,61.51,79.34Z"/><path class="cls-2" d="M68.51,83.21h-2.7l-.51,1.54H63.67l2.78-7.46h1.42l2.79,7.46H69ZM66.23,82H68.1l-.94-2.79Z"/><path class="cls-2" d="M78.38,86.58H77V84.75h-4.5v1.83H71l-.08-3.06h.56a2.41,2.41,0,0,0,.7-1.11,7.69,7.69,0,0,0,.34-1.82l.22-3.29h4.89v6.23h.87Zm-5.13-3.07h2.84v-5H74.2l-.13,2A6.58,6.58,0,0,1,73.25,83.51Z"/><path class="cls-2" d="M81.92,84.75V77.28h2.61a3.43,3.43,0,0,1,2.06.52,1.78,1.78,0,0,1,.7,1.52,1.68,1.68,0,0,1-.28,1,1.63,1.63,0,0,1-.78.61,1.58,1.58,0,0,1,.9.58,1.71,1.71,0,0,1,.33,1.07,2,2,0,0,1-.69,1.63,3.09,3.09,0,0,1-2,.56Zm1.54-4.33h1.14q1.16,0,1.16-.93a.86.86,0,0,0-.29-.73,1.54,1.54,0,0,0-.93-.22H83.46Zm0,1.09v2h1.32a1.27,1.27,0,0,0,.85-.26.89.89,0,0,0,.31-.71.94.94,0,0,0-1.06-1Z"/><path class="cls-2" d="M97.31,84.75H95.76V78.53h-3v6.22H91.24V77.28h6.07Z"/><path class="cls-2" d="M104.78,81.18a4.51,4.51,0,0,1-.39,1.93,2.93,2.93,0,0,1-1.11,1.28,3.29,3.29,0,0,1-3.32,0,3,3,0,0,1-1.13-1.27,4.38,4.38,0,0,1-.41-1.9v-.37a4.48,4.48,0,0,1,.4-1.94,3,3,0,0,1,1.12-1.29,3.28,3.28,0,0,1,3.32,0,3,3,0,0,1,1.12,1.29,4.46,4.46,0,0,1,.4,1.93Zm-1.56-.34a3.14,3.14,0,0,0-.42-1.78,1.48,1.48,0,0,0-2.39,0,3.1,3.1,0,0,0-.43,1.77v.36a3.18,3.18,0,0,0,.42,1.77,1.37,1.37,0,0,0,1.21.63A1.35,1.35,0,0,0,102.8,83a3.15,3.15,0,0,0,.42-1.77Z"/><path class="cls-2" d="M107.44,82.12v2.63H105.9V77.28h2.91a3.37,3.37,0,0,1,1.48.31,2.27,2.27,0,0,1,1,.87,2.43,2.43,0,0,1,.34,1.29,2.14,2.14,0,0,1-.75,1.73,3.13,3.13,0,0,1-2.08.63Zm0-1.25h1.37a1.35,1.35,0,0,0,.93-.29,1,1,0,0,0,.32-.82,1.23,1.23,0,0,0-.32-.89,1.21,1.21,0,0,0-.89-.35h-1.41Z"/><path class="cls-2" d="M118.28,78.53H116v6.22h-1.54V78.53h-2.25V77.28h6.08Z"/><path class="cls-2" d="M123.54,78h.09a3.26,3.26,0,0,1,1.59.39,2.74,2.74,0,0,1,1.1,1.1,3.29,3.29,0,0,1,.39,1.62,3,3,0,0,1-.86,2.19,3.15,3.15,0,0,1-2.32.85v1h-1.48v-1H122a3.33,3.33,0,0,1-1.6-.38,2.72,2.72,0,0,1-1.1-1.07,3.15,3.15,0,0,1-.39-1.58,3.27,3.27,0,0,1,.39-1.6,2.79,2.79,0,0,1,1.09-1.1,3.22,3.22,0,0,1,1.57-.41h.14V77h1.48ZM122,79.23a1.54,1.54,0,0,0-1.2.48,1.94,1.94,0,0,0-.44,1.36,1.82,1.82,0,0,0,.44,1.29,1.59,1.59,0,0,0,1.22.47h.08v-3.6Zm1.58,0v3.6h.1a1.52,1.52,0,0,0,1.19-.47,1.84,1.84,0,0,0,.43-1.29,2,2,0,0,0-.43-1.34,1.53,1.53,0,0,0-1.22-.49Z"/><path class="cls-2" d="M133.86,81.18a4.5,4.5,0,0,1-.39,1.93,2.93,2.93,0,0,1-1.11,1.28,3.29,3.29,0,0,1-3.32,0,3,3,0,0,1-1.13-1.27,4.38,4.38,0,0,1-.41-1.9v-.37a4.48,4.48,0,0,1,.4-1.94A3,3,0,0,1,129,77.63a3.28,3.28,0,0,1,3.32,0,3,3,0,0,1,1.12,1.29,4.45,4.45,0,0,1,.4,1.93Zm-1.56-.34a3.14,3.14,0,0,0-.42-1.78,1.48,1.48,0,0,0-2.39,0,3.1,3.1,0,0,0-.43,1.77v.36a3.18,3.18,0,0,0,.42,1.77,1.37,1.37,0,0,0,1.21.63,1.35,1.35,0,0,0,1.19-.61,3.15,3.15,0,0,0,.42-1.77Z"/><path class="cls-2" d="M140.88,77.28v7.46h-1.54V78.53h-2l-.12,2.63a8.16,8.16,0,0,1-.34,2.1,2.18,2.18,0,0,1-.76,1.12,2.36,2.36,0,0,1-1.37.36h-.4V83.51l.26,0a1,1,0,0,0,.83-.67,6.93,6.93,0,0,0,.31-2.11l.13-3.42Z"/><path class="cls-2" d="M146.7,77.28h1.54v7.46H146.7v-5l-3,5h-1.54V77.28h1.54v5Z"/><path class="cls-2" d="M155.7,81.18a4.5,4.5,0,0,1-.39,1.93,2.94,2.94,0,0,1-1.11,1.28,3.29,3.29,0,0,1-3.32,0,3,3,0,0,1-1.13-1.27,4.38,4.38,0,0,1-.41-1.9v-.37a4.48,4.48,0,0,1,.4-1.94,3,3,0,0,1,1.12-1.29,3.28,3.28,0,0,1,3.32,0,3,3,0,0,1,1.12,1.29,4.46,4.46,0,0,1,.4,1.93Zm-1.56-.34a3.14,3.14,0,0,0-.42-1.78,1.48,1.48,0,0,0-2.39,0,3.11,3.11,0,0,0-.43,1.77v.36a3.18,3.18,0,0,0,.42,1.77,1.47,1.47,0,0,0,2.4,0,3.15,3.15,0,0,0,.42-1.77Z"/><path class="cls-2" d="M158.6,15.75v124.1L23.89,78,158.6,15.7M168.6,0,154.4,6.57,19.68,68.93,0,78l19.71,9.05,134.71,61.85,14.17,6.51V0Z"/></g></g></svg>