<svg xmlns="http://www.w3.org/2000/svg" viewBox="0 0 197.26 38.79"><defs><style>.cls-1{fill:#fff;}</style></defs><title>kraski2</title><g id="Слой_2" data-name="Слой 2"><g id="Слой_1-2" data-name="Слой 1"><path class="cls-1" d="M44.76,38.16H28.38L16.64,21.46l-2.1,1.75V38.16H0V0H14.53V17L31.94,0h6.74L26.25,12Z"/><path class="cls-1" d="M73.54,15.9a23.9,23.9,0,0,1-1.3,5.25H63.7q.07-.21.8-2.12A6.42,6.42,0,0,0,65,16.85q0-1.7-1.52-1.7t-2.68,3a12.42,12.42,0,0,0-.79,4v16H47.58V11.45A98.59,98.59,0,0,0,60,10.76v4.4q3-4.4,7.45-4.4Q73.54,10.76,73.54,15.9Z"/><path class="cls-1" d="M112.08,37.17a32.81,32.81,0,0,1-9,1.36q-6.29,0-7.88-3.18-3,3.18-8.82,3.18-11,0-11-7.79,0-5.79,9.87-8.32,9.08-2.32,9.08-5.27,0-4.11-5.18-4.11-6,0-6,4a9.15,9.15,0,0,0,.87,3.29L78,19.4a14,14,0,0,1-.22-2.33q0-6.36,14.9-6.36,6.8,0,10.2,1.64a7,7,0,0,1,4,6.73V32.86q0,2.44,2.1,2.44a6.45,6.45,0,0,0,2-.53ZM94.36,29.69V22.1a10.18,10.18,0,0,1-2.65,1.73,6,6,0,0,0-3.86,5.76q0,5.23,2.65,5.23Q94.36,34.82,94.36,29.69Z"/><path class="cls-1" d="M143,29.78q0,9-14.9,9-15.55,0-15.55-9l6.44-1.06a5.72,5.72,0,0,0-.22,1.7,4.8,4.8,0,0,0,2.57,4.05,10.56,10.56,0,0,0,5.89,1.67q4.48,0,4.48-3,0-1.91-7.23-4.35-11-3.76-11-9.43,0-4.19,4.84-6.52a22.89,22.89,0,0,1,10.2-2.07q11.71,0,12.8,7.53l-6,.79q0-6-7.23-6-4.34,0-4.34,2.81,0,1.7,5,3.5,7.66,2.86,9.25,3.71Q143,25.92,143,29.78Z"/><path class="cls-1" d="M181.57,38.16H168.41l-6-11.77-2.17,2.17v9.59H147.65V2.07q5.49,0,12.58-.63V24.06l13.23-12.61h5l-7.09,6.89Z"/><path class="cls-1" d="M197.26,38.16H184.67V11.45a113.49,113.49,0,0,0,12.58-.69Zm-.43-33.6q0,3.5-5.79,3.5t-5.78-3.5q0-3.5,5.78-3.5T196.82,4.56Z"/></g></g></svg>