<svg xmlns="http://www.w3.org/2000/svg" viewBox="0 0 188.92 12.15"><defs><style>.cls-1{fill:#fff;}</style></defs><title>telefon3</title><g id="Слой_2" data-name="Слой 2"><g id="Слой_1-2" data-name="Слой 1"><path class="cls-1" d="M14.49,8.28q0,1.86-2.27,2.92a12.19,12.19,0,0,1-5.16,1,12.42,12.42,0,0,1-4.76-.83Q0,10.38,0,8.77T2.78,6.34Q.4,5.21.4,3.57A3,3,0,0,1,2.46.9,11.35,11.35,0,0,1,7.19,0a11,11,0,0,1,4,.64q1.9.75,1.9,2.12T10.9,5Q14.49,6.22,14.49,8.28ZM10.55,9.38q0-1-1.61-1.48-.4-.13-3-.65L4,6.84q-1.75.72-1.75,1.92t1.51,1.79A7.33,7.33,0,0,0,7,11.21a5.91,5.91,0,0,0,2.43-.47Q10.55,10.2,10.55,9.38Zm.29-6.29Q10.84,1,7.06,1,3.83,1,3.83,2.49q0,.94,2.86,1.52l3,.6Q10.84,3.94,10.84,3.1Z"/><path class="cls-1" d="M22.22,8.57H15.87V6.32h6.35Z"/><path class="cls-1" d="M37.87,5.88A5.52,5.52,0,0,1,36,10.17a8.78,8.78,0,0,1-6.16,2q-5.18,0-5.18-2.51,0-.08.11-.73l2.35-.26a3,3,0,0,0-.19,1q0,1.58,2.27,1.58a3.21,3.21,0,0,0,2.63-1,5.35,5.35,0,0,0,.78-3.31,5.77,5.77,0,0,1-3.54,1,6.24,6.24,0,0,1-3.91-1.14,3.15,3.15,0,0,1-1.4-2.59,3.56,3.56,0,0,1,1.76-3A8.36,8.36,0,0,1,30.26,0Q37.87,0,37.87,5.88ZM32.61,4.06q0-3.13-1.9-3.13T28.8,4.22q0,2.56,1.77,2.56Q32.61,6.78,32.61,4.06Z"/><path class="cls-1" d="M54.64,6.06q0,6.06-7.46,6.06T39.7,6.06q0-6,7.49-6T54.64,6.06Zm-5.45,0q0-5.1-2-5.1t-2,5.1q0,5.12,2,5.12T49.19,6.06Z"/><path class="cls-1" d="M66.65,11.93H61.6V3.1a14.49,14.49,0,0,1-3.7.72V2.26Q61.86,2,63.48.2h3.17Z"/><path class="cls-1" d="M75.35,8.57H69V6.32h6.35Z"/><path class="cls-1" d="M90.66,8a3.38,3.38,0,0,1-2.14,3.06,11.53,11.53,0,0,1-5.24,1q-6.16,0-6.16-2.79a2.76,2.76,0,0,1,.16-1L79.64,8a3.41,3.41,0,0,0-.26,1.29q0,1.74,2.86,1.74,3.41,0,3.41-3.16,0-2.25-2.91-2.25a4.41,4.41,0,0,0-3.07,1.21L77.6,6.53,79.27.2H89.69L89,2.66H80.56L79.9,5.17a11,11,0,0,1,4.44-.95A8.67,8.67,0,0,1,88.88,5.3,3.16,3.16,0,0,1,90.66,8Z"/><path class="cls-1" d="M103.46,11.93H98.41V3.1a14.5,14.5,0,0,1-3.7.72V2.26q4-.24,5.58-2.07h3.17Z"/><path class="cls-1" d="M123.22,8a3.38,3.38,0,0,1-2.14,3.06,11.6,11.6,0,0,1-5.26,1q-6.16,0-6.16-2.79a3.8,3.8,0,0,1,.16-1L112.17,8a3.91,3.91,0,0,0-.24,1.29q0,1.74,2.86,1.74,3.39,0,3.39-3.16,0-2.25-2.91-2.25a4.64,4.64,0,0,0-1.82.41l-1-.9,6.61-2.51h-8.15L110.5.2h11.72l-.63,2.46-3.83,1.6a7.89,7.89,0,0,1,4,1.22A3.06,3.06,0,0,1,123.22,8Z"/><path class="cls-1" d="M131.61,8.57h-6.35V6.32h6.35Z"/><path class="cls-1" d="M139.06,11.93H134V3.1a14.49,14.49,0,0,1-3.7.72V2.26q4-.24,5.58-2.07h3.17Z"/><path class="cls-1" d="M155.38,11.93h-5.05V3.1a14.49,14.49,0,0,1-3.7.72V2.26q4-.24,5.58-2.07h3.17Z"/><path class="cls-1" d="M164.08,8.57h-6.35V6.32h6.35Z"/><path class="cls-1" d="M175.93,2q-4.6,4-4.6,9.25v.68h-5.77q.48-5.15,6.19-9.06H162.6L163.24.2h12.7Z"/><path class="cls-1" d="M188.92,11.93h-5.05V3.1a14.49,14.49,0,0,1-3.7.72V2.26q4-.24,5.58-2.07h3.17Z"/></g></g></svg>