<svg xmlns="http://www.w3.org/2000/svg" viewBox="0 0 409.6 332.8"><defs><style>.cls-1{fill:none;}.cls-2{fill:#fff;}</style></defs><title>fotik6</title><g id="Слой_2" data-name="Слой 2"><g id="Слой_1-2" data-name="Слой 1"><path class="cls-1" d="M384,128"/><path class="cls-1" d="M204.8,78.4A113.6,113.6,0,1,0,318.4,192,113.6,113.6,0,0,0,204.8,78.4Zm0,196.8A83.2,83.2,0,1,1,288,192,83.2,83.2,0,0,1,204.8,275.2Z"/><circle class="cls-2" cx="204.8" cy="192" r="83.2"/><path class="cls-2" d="M384,51.2H294.4C288,25.6,281.6,0,256,0H153.6c-25.6,0-32,25.6-38.4,51.2H25.6A25.68,25.68,0,0,0,0,76.8V307.2a25.68,25.68,0,0,0,25.6,25.6H384a25.68,25.68,0,0,0,25.6-25.6V76.8A25.68,25.68,0,0,0,384,51.2ZM204.8,305.6A113.6,113.6,0,1,1,318.4,192,113.6,113.6,0,0,1,204.8,305.6ZM384,128H332.8V102.4H384Z"/><rect class="cls-1" x="332.8" y="102.4" width="51.2" height="25.6"/></g></g></svg>